<svg xmlns="http://www.w3.org/2000/svg" fill="none" viewBox="0 0 143 29"><path fill="#05C3DE" fill-rule="evenodd" d="M14.06 6.56v4.02H9.65v10.84c0 1.02.17 1.7.51 2.03.34.34 1.02.51 2.03.51a11.2 11.2 0 0 0 1.87-.17v4.66a16 16 0 0 1-1.7.17c-.62.03-1.22.04-1.82.04-.93 0-1.81-.06-2.65-.19a6.23 6.23 0 0 1-2.2-.74 3.94 3.94 0 0 1-1.5-1.57 5.6 5.6 0 0 1-.55-2.66V10.58H0V6.56h3.64V0h6.01v6.56h4.4Zm8.59 0v4.06h.08a7.47 7.47 0 0 1 4.78-4.32 7.42 7.42 0 0 1 2.2-.33c.4 0 .84.07 1.32.21v5.59a12.26 12.26 0 0 0-2.16-.21 6.4 6.4 0 0 0-2.8.55c-.76.37-1.37.87-1.83 1.5-.47.64-.8 1.38-1 2.22-.2.85-.3 1.77-.3 2.76v9.86h-6V6.56h5.7ZM48.22 25.4v3.05h5.72V6.56h-6.02v11.48c0 2.23-.36 3.83-1.1 4.8-.73.97-1.92 1.46-3.55 1.46-1.44 0-2.45-.44-3.01-1.33-.57-.9-.85-2.24-.85-4.04V6.56H33.4v13.47c0 1.35.12 2.59.36 3.7a7.07 7.07 0 0 0 1.25 2.84 5.7 5.7 0 0 0 2.43 1.8c1.03.42 2.36.63 3.96.63 1.27 0 2.52-.28 3.73-.85a6.74 6.74 0 0 0 2.96-2.75h.13Zm58.6-16.76 4.23 11.22h-8.62l4.39-11.22Zm9.84 19.8-8.58-21.89h-2.33l-8.8 21.9h2.2l2.64-6.8h9.96l2.67 6.8h2.24Zm-27.9-11.5c.63 0 1.23-.09 1.8-.28a4.14 4.14 0 0 0 2.53-2.18c.26-.52.39-1.12.39-1.8 0-1.34-.4-2.4-1.17-3.18-.77-.78-1.96-1.17-3.55-1.17h-7.8v8.62h7.8Zm.15-10.39c.9 0 1.75.12 2.56.34.8.23 1.51.57 2.11 1.03a5 5 0 0 1 1.45 1.78c.36.72.53 1.58.53 2.56 0 1.39-.35 2.6-1.07 3.62a4.9 4.9 0 0 1-3.19 1.96v.06c.72.1 1.31.3 1.78.57.47.27.85.63 1.15 1.06.3.43.51.92.64 1.48.13.57.22 1.17.26 1.83l.06 1.33v.02c.02.53.07 1.07.13 1.6.06.55.16 1.06.3 1.54.12.48.3.85.53 1.12h-2.3a2.7 2.7 0 0 1-.3-.75 6.5 6.5 0 0 1-.15-.92 22.93 22.93 0 0 1-.14-1.73c-.04-.78-.1-1.55-.2-2.32a6.4 6.4 0 0 0-.58-2.05c-.3-.6-.72-1.1-1.29-1.46a3.9 3.9 0 0 0-2.31-.5h-7.91v9.73h-2.09V6.55h10.03ZM67.69 26.67c.78 0 1.51-.06 2.2-.2.7-.13 1.32-.37 1.84-.72.54-.34.96-.81 1.26-1.4.31-.58.46-1.3.46-2.19 0-1.41-.49-2.47-1.48-3.17-1-.7-2.42-1.06-4.28-1.06H60.5v8.74h7.18Zm0-10.52c.84 0 1.56-.1 2.18-.29.6-.2 1.12-.46 1.53-.8a3.3 3.3 0 0 0 1.23-2.62c0-2.74-1.65-4.1-4.94-4.1H60.5v7.81h7.18Zm0-9.6c.92 0 1.8.1 2.65.26.85.18 1.6.48 2.24.9.64.41 1.16.97 1.55 1.65.39.69.58 1.54.58 2.56a5.13 5.13 0 0 1-2.25 4.27c-.46.3-.98.51-1.55.64v.06c1.41.18 2.53.76 3.37 1.73a5.33 5.33 0 0 1 1.26 3.6c0 .35-.03.75-.1 1.18a5.85 5.85 0 0 1-1.16 2.72c-.35.45-.81.84-1.4 1.18-.58.34-1.3.61-2.14.83-.85.21-1.87.32-3.05.32h-9.26V6.55h9.26Zm51.12 21.9h2.08V6.55h-2.08v21.9Zm21.7-3.37L127.77 6.55h-2.33v21.9h2.08V9.93h.07l12.75 18.52h2.33V6.55h-2.08v18.53h-.06Z" clip-rule="evenodd"/></svg>